{
  "accessors": [
    {
      "bufferView": 2,
      "componentType": 5126,
      "count": 1728,
      "max": [
        55.14101028442383,
        111.84520721435547,
        54.04097366333008
      ],
      "min": [
        -53.31209182739258,
        3.0163841247558594,
        -54.90797805786133
      ],
      "type": "VEC3"
    },
    {
      "bufferView": 2,
      "byteOffset": 20736,
      "componentType": 5126,
      "count": 1728,
      "max": [
        0.9991381168365479,
        0.9973427057266235,
        0.9957640767097473
      ],
      "min": [
        -0.998926043510437,
        -0.997028112411499,
        -0.994542121887207
      ],
      "type": "VEC3"
    },
    {
      "bufferView": 1,
      "componentType": 5126,
      "count": 1728,
      "max": [
        0.36666667461395264,
        0.875
      ],
      "min": [
        0.2611111104488373,
        0.7805555462837219
      ],
      "type": "VEC2"
    },
    {
      "bufferView": 1,
      "byteOffset": 13824,
      "componentType": 5126,
      "count": 1728,
      "max": [
        0.36666667461395264,
        0.875
      ],
      "min": [
        0.2611111104488373,
        0.7805555462837219
      ],
      "type": "VEC2"
    },
    {
      "bufferView": 1,
      "byteOffset": 27648,
      "componentType": 5126,
      "count": 1728,
      "max": [
        0.36666667461395264,
        0.875
      ],
      "min": [
        0.2611111104488373,
        0.7805555462837219
      ],
      "type": "VEC2"
    },
    {
      "bufferView": 1,
      "byteOffset": 41472,
      "componentType": 5126,
      "count": 1728,
      "max": [
        0.36666667461395264,
        0.875
      ],
      "min": [
        0.2611111104488373,
        0.7805555462837219
      ],
      "type": "VEC2"
    },
    {
      "bufferView": 0,
      "componentType": 5125,
      "count": 1728,
      "type": "SCALAR"
    },
    {
      "bufferView": 2,
      "byteOffset": 41472,
      "componentType": 5126,
      "count": 7622,
      "max": [
        55.6065788269043,
        112.7559814453125,
        56.489227294921875
      ],
      "min": [
        -56.86756134033203,
        0.6599045395851135,
        -51.32392120361328
      ],
      "type": "VEC3"
    },
    {
      "bufferView": 2,
      "byteOffset": 132936,
      "componentType": 5126,
      "count": 7622,
      "max": [
        0.999336302280426,
        0.9969363212585449,
        0.9987077713012695
      ],
      "min": [
        -0.9992649555206299,
        -0.9995734095573425,
        -0.999896228313446
      ],
      "type": "VEC3"
    },
    {
      "bufferView": 1,
      "byteOffset": 55296,
      "componentType": 5126,
      "count": 7622,
      "max": [
        0.7916666865348816,
        0.24722224473953247
      ],
      "min": [
        0.46666666865348816,
        0.18333333730697632
      ],
      "type": "VEC2"
    },
    {
      "bufferView": 1,
      "byteOffset": 116272,
      "componentType": 5126,
      "count": 7622,
      "max": [
        0.7916666865348816,
        0.24722224473953247
      ],
      "min": [
        0.46666666865348816,
        0.18333333730697632
      ],
      "type": "VEC2"
    },
    {
      "bufferView": 1,
      "byteOffset": 177248,
      "componentType": 5126,
      "count": 7622,
      "max": [
        0.7916666865348816,
        0.24722224473953247
      ],
      "min": [
        0.46666666865348816,
        0.18333333730697632
      ],
      "type": "VEC2"
    },
    {
      "bufferView": 1,
      "byteOffset": 238224,
      "componentType": 5126,
      "count": 7622,
      "max": [
        0.7916666865348816,
        0.24722224473953247
      ],
      "min": [
        0.46666666865348816,
        0.18333333730697632
      ],
      "type": "VEC2"
    },
    {
      "bufferView": 0,
      "byteOffset": 6912,
      "componentType": 5125,
      "count": 9636,
      "type": "SCALAR"
    }
  ],
  "asset": {
    "extras": {
      "author": "Denys Almaral (https://sketchfab.com/denysalmaral)",
      "license": "SKETCHFAB Standard (https://sketchfab.com/licenses)",
      "source": "https://sketchfab.com/3d-models/low-poly-style-earth-3d-model-flatshaded-a80f6a01678c4b528efdddb37b730ffc",
      "title": "Low Poly Style Earth 3D Model Flatshaded"
    },
    "generator": "Sketchfab-12.65.0",
    "version": "2.0"
  },
  "bufferViews": [
    {
      "buffer": 0,
      "byteLength": 45456,
      "name": "floatBufferViews",
      "target": 34963
    },
    {
      "buffer": 0,
      "byteLength": 299200,
      "byteOffset": 45456,
      "byteStride": 8,
      "name": "floatBufferViews",
      "target": 34962
    },
    {
      "buffer": 0,
      "byteLength": 224400,
      "byteOffset": 344656,
      "byteStride": 12,
      "name": "floatBufferViews",
      "target": 34962
    }
  ],
  "buffers": [
    {
      "byteLength": 569056,
      "uri": "scene.bin"
    }
  ],
  "extensionsRequired": [
    "KHR_materials_pbrSpecularGlossiness"
  ],
  "extensionsUsed": [
    "KHR_materials_pbrSpecularGlossiness"
  ],
  "images": [
    {
      "uri": "textures/lpEarthMat_diffuse.png"
    },
    {
      "uri": "textures/lpEarthMat_specularGlossiness.png"
    }
  ],
  "materials": [
    {
      "doubleSided": true,
      "extensions": {
        "KHR_materials_pbrSpecularGlossiness": {
          "diffuseFactor": [
            1.0,
            1.0,
            1.0,
            1.0
          ],
          "diffuseTexture": {
            "index": 0
          },
          "glossinessFactor": 1.0,
          "specularFactor": [
            0.12331351196882087,
            0.12331351196882087,
            0.12331351196882087
          ],
          "specularGlossinessTexture": {
            "index": 1
          }
        }
      },
      "name": "lpEarthMat"
    }
  ],
  "meshes": [
    {
      "name": "flatEarth_sea_lpEarthMat_0",
      "primitives": [
        {
          "attributes": {
            "NORMAL": 1,
            "POSITION": 0,
            "TEXCOORD_0": 2,
            "TEXCOORD_1": 3,
            "TEXCOORD_2": 4,
            "TEXCOORD_3": 5
          },
          "indices": 6,
          "material": 0,
          "mode": 4
        }
      ]
    },
    {
      "name": "flatEarth_lands_lpEarthMat_0",
      "primitives": [
        {
          "attributes": {
            "NORMAL": 8,
            "POSITION": 7,
            "TEXCOORD_0": 9,
            "TEXCOORD_1": 10,
            "TEXCOORD_2": 11,
            "TEXCOORD_3": 12
          },
          "indices": 13,
          "material": 0,
          "mode": 4
        }
      ]
    }
  ],
  "nodes": [
    {
      "children": [
        1
      ],
      "matrix": [
        1.3801264762878418,
        0.0,
        0.0,
        0.0,
        0.0,
        3.064496381739094e-16,
        -1.3801264762878418,
        0.0,
        0.0,
        1.3801264762878418,
        3.064496381739094e-16,
        0.0,
        0.0,
        0.0,
        0.0,
        1.0
      ],
      "name": "Sketchfab_model"
    },
    {
      "children": [
        2
      ],
      "matrix": [
        0.009999999776482582,
        0.0,
        0.0,
        0.0,
        0.0,
        0.0,
        0.009999999776482582,
        0.0,
        0.0,
        -0.009999999776482582,
        0.0,
        0.0,
        0.0,
        0.0,
        0.0,
        1.0
      ],
      "name": "lpEarth.fbx"
    },
    {
      "children": [
        3
      ],
      "name": "RootNode"
    },
    {
      "children": [
        4
      ],
      "name": "lpEarth"
    },
    {
      "children": [
        5,
        6
      ],
      "name": "flatEarth_sea"
    },
    {
      "mesh": 0,
      "name": "flatEarth_sea_lpEarthMat_0"
    },
    {
      "children": [
        7
      ],
      "name": "flatEarth_lands"
    },
    {
      "mesh": 1,
      "name": "flatEarth_lands_lpEarthMat_0"
    }
  ],
  "samplers": [
    {
      "magFilter": 9729,
      "minFilter": 9987,
      "wrapS": 10497,
      "wrapT": 10497
    }
  ],
  "scene": 0,
  "scenes": [
    {
      "name": "Sketchfab_Scene",
      "nodes": [
        0
      ]
    }
  ],
  "textures": [
    {
      "sampler": 0,
      "source": 0
    },
    {
      "sampler": 0,
      "source": 1
    }
  ]
}
