{
  "accessors": [
    {
      "bufferView": 1,
      "componentType": 5126,
      "count": 6834,
      "max": [
        -25.423349380493164,
        -0.0,
        27.5924015045166
      ],
      "min": [
        -39.5114860534668,
        -5.061728000640869,
        -7.002620220184326
      ],
      "type": "VEC3"
    },
    {
      "bufferView": 1,
      "byteOffset": 82008,
      "componentType": 5126,
      "count": 6834,
      "max": [
        0.9958167672157288,
        1.0,
        0.9975024461746216
      ],
      "min": [
        -0.998512327671051,
        -1.0,
        -0.9999256134033203
      ],
      "type": "VEC3"
    },
    {
      "bufferView": 0,
      "componentType": 5125,
      "count": 40992,
      "type": "SCALAR"
    },
    {
      "bufferView": 1,
      "byteOffset": 164016,
      "componentType": 5126,
      "count": 5634,
      "max": [
        -26.713409423828125,
        -0.0,
        -17.72020149230957
      ],
      "min": [
        -38.16862869262695,
        -5.061728000640869,
        -30.1945858001709
      ],
      "type": "VEC3"
    },
    {
      "bufferView": 1,
      "byteOffset": 231624,
      "componentType": 5126,
      "count": 5634,
      "max": [
        0.9999127388000488,
        1.0,
        0.9999339580535889
      ],
      "min": [
        -0.999933660030365,
        -1.0,
        -0.9999381303787231
      ],
      "type": "VEC3"
    },
    {
      "bufferView": 0,
      "byteOffset": 163968,
      "componentType": 5125,
      "count": 33792,
      "type": "SCALAR"
    }
  ],
  "asset": {
    "extras": {
      "author": "Huargenn (https://sketchfab.com/Huargenn)",
      "license": "CC-BY-4.0 (http://creativecommons.org/licenses/by/4.0/)",
      "source": "https://sketchfab.com/3d-models/exclamation-of-mission-fcd0149ec6b64a51b4ebdd464386b1e7",
      "title": "Exclamation Of Mission"
    },
    "generator": "Sketchfab-12.67.0",
    "version": "2.0"
  },
  "bufferViews": [
    {
      "buffer": 0,
      "byteLength": 299136,
      "name": "floatBufferViews",
      "target": 34963
    },
    {
      "buffer": 0,
      "byteLength": 299232,
      "byteOffset": 299136,
      "byteStride": 12,
      "name": "floatBufferViews",
      "target": 34962
    }
  ],
  "buffers": [
    {
      "byteLength": 598368,
      "uri": "scene.bin"
    }
  ],
  "materials": [
    {
      "doubleSided": true,
      "name": "Scene_-_Root",
      "pbrMetallicRoughness": {
        "baseColorFactor": [
          1.0,
          0.7052530365,
          0.0,
          1.0
        ],
        "metallicFactor": 0.0,
        "roughnessFactor": 0.6
      }
    }
  ],
  "meshes": [
    {
      "name": "Object_0",
      "primitives": [
        {
          "attributes": {
            "NORMAL": 1,
            "POSITION": 0
          },
          "indices": 2,
          "material": 0,
          "mode": 4
        }
      ]
    },
    {
      "name": "Object_1",
      "primitives": [
        {
          "attributes": {
            "NORMAL": 4,
            "POSITION": 3
          },
          "indices": 5,
          "material": 0,
          "mode": 4
        }
      ]
    }
  ],
  "nodes": [
    {
      "children": [
        1
      ],
      "matrix": [
        1.0,
        0.0,
        0.0,
        0.0,
        0.0,
        2.220446049250313e-16,
        -1.0,
        0.0,
        0.0,
        1.0,
        2.220446049250313e-16,
        0.0,
        0.0,
        0.0,
        0.0,
        1.0
      ],
      "name": "Sketchfab_model"
    },
    {
      "children": [
        2,
        3
      ],
      "name": "aba753e6a39d4af88b5cdd6608528d05.obj.cleaner"
    },
    {
      "mesh": 0,
      "name": "Object_2"
    },
    {
      "mesh": 1,
      "name": "Object_3"
    }
  ],
  "scene": 0,
  "scenes": [
    {
      "name": "Sketchfab_Scene",
      "nodes": [
        0
      ]
    }
  ]
}
